<?xml version="1.0"?>
<svg xmlns="http://www.w3.org/2000/svg" xmlns:xlink="http://www.w3.org/1999/xlink" xmlns:svgjs="http://svgjs.com/svgjs" version="1.1" width="512" height="512" x="0" y="0" viewBox="0 0 256 256" style="enable-background:new 0 0 512 512" xml:space="preserve" class=""><g><path xmlns="http://www.w3.org/2000/svg" d="m89.43 126.845h77.14a22.725 22.725 0 0 1 22.725 22.725v83.445a0 0 0 0 1 0 0h-122.59a0 0 0 0 1 0 0v-83.445a22.725 22.725 0 0 1 22.725-22.725z" fill="#707070" data-original="#707070" style="" class=""/><path xmlns="http://www.w3.org/2000/svg" d="m107.93 126.845h-18.5a22.725 22.725 0 0 0 -22.725 22.725v83.445h18.5v-83.445a22.725 22.725 0 0 1 22.725-22.725z" fill="#5b5b5b" data-original="#5b5b5b" style="" class=""/><path xmlns="http://www.w3.org/2000/svg" d="m148.07 126.845h18.5a22.725 22.725 0 0 1 22.725 22.725v83.445h-18.5v-83.445a22.725 22.725 0 0 0 -22.725-22.725z" fill="#9e9e9e" data-original="#9e9e9e" style="" class=""/><rect xmlns="http://www.w3.org/2000/svg" fill="#f8af23" height="70.588" rx="16.333" width="34.246" x="110.877" y="73.514" data-original="#f8af23" style="" class=""/><path xmlns="http://www.w3.org/2000/svg" d="m110.877 89.848v37.921a16.392 16.392 0 0 0 11.667 15.641v-69.2a16.392 16.392 0 0 0 -11.667 15.638z" fill="#f87023" data-original="#f87023" style="" class=""/><path xmlns="http://www.w3.org/2000/svg" d="m153.438 64.213a69.73 69.73 0 0 1 -23.344 52.148 52.19 52.19 0 0 0 0-104.3 69.73 69.73 0 0 1 23.344 52.152z" fill="#63bce7" data-original="#63bce7" style="" class=""/><path xmlns="http://www.w3.org/2000/svg" d="m102.562 64.213a69.73 69.73 0 0 1 23.344-52.148 52.19 52.19 0 0 0 0 104.3 69.73 69.73 0 0 1 -23.344-52.152z" fill="#63bce7" data-original="#63bce7" style="" class=""/><path xmlns="http://www.w3.org/2000/svg" d="m94.3 64.213a52.126 52.126 0 0 1 23.564-43.63 70.259 70.259 0 0 1 8.043-8.518 52.19 52.19 0 0 0 0 104.3 70.259 70.259 0 0 1 -8.043-8.518 52.126 52.126 0 0 1 -23.564-43.634z" fill="#6377e7" data-original="#6377e7" style="" class=""/><path xmlns="http://www.w3.org/2000/svg" d="m125.906 12.065a69.919 69.919 0 0 0 0 104.3c.7.027 1.392.053 2.094.053s1.4-.025 2.094-.053a69.919 69.919 0 0 0 0-104.3c-.7-.027-1.392-.053-2.094-.053s-1.4.026-2.094.053z" fill="#63bce7" data-original="#63bce7" style="" class=""/><path xmlns="http://www.w3.org/2000/svg" d="m168.982 65.82a2.47 2.47 0 0 0 0-3.214c-11.082-11.63-25.377-18.643-40.982-18.643s-29.9 7.013-40.982 18.643a2.47 2.47 0 0 0 0 3.214c11.082 11.63 25.377 18.643 40.982 18.643s29.9-7.013 40.982-18.643z" fill="#f46275" data-original="#f46275" style="" class=""/><path xmlns="http://www.w3.org/2000/svg" d="m63.226 99.883a6.869 6.869 0 0 0 -9.579-.127l-.046-.03v-17.785a6.873 6.873 0 0 0 -6.873-6.873 6.873 6.873 0 0 0 -6.873 6.873v40.713a1.9 1.9 0 0 0 .548 1.335l13.548 13.733a1.9 1.9 0 0 1 .548 1.335v4.351h26v-25.463a1.9 1.9 0 0 0 -.557-1.344z" fill="#f8af23" data-original="#f8af23" style="" class=""/><path xmlns="http://www.w3.org/2000/svg" d="m72.449 137.721-13.549-13.733a1.9 1.9 0 0 1 -.548-1.335v-24.776a6.855 6.855 0 0 0 -4.707 1.878l-.046-.03v-17.784a6.873 6.873 0 0 0 -13.747 0v40.713a1.9 1.9 0 0 0 .548 1.335l13.548 13.732a1.9 1.9 0 0 1 .548 1.335v4.351h18.504v-4.351a1.9 1.9 0 0 0 -.551-1.335z" fill="#f87023" data-original="#f87023" style="" class=""/><path xmlns="http://www.w3.org/2000/svg" d="m48.574 143.406h37.85v9.378h-37.85z" fill="#9e9e9e" data-original="#9e9e9e" style="" class=""/><path xmlns="http://www.w3.org/2000/svg" d="m48.574 143.406h18.5v9.378h-18.5z" fill="#707070" data-original="#707070" style="" class=""/><path xmlns="http://www.w3.org/2000/svg" d="m51.445 152.785h32.108a0 0 0 0 1 0 0v64.177a16.054 16.054 0 0 1 -16.053 16.053 16.054 16.054 0 0 1 -16.054-16.054v-64.176a0 0 0 0 1 0 0z" fill="#707070" data-original="#707070" style="" class=""/><path xmlns="http://www.w3.org/2000/svg" d="m69.945 216.961v-64.176h-18.5v64.177a16.039 16.039 0 0 0 25.3 13.107 16.023 16.023 0 0 1 -6.8-13.108z" fill="#5b5b5b" data-original="#5b5b5b" style="" class=""/><path xmlns="http://www.w3.org/2000/svg" d="m192.774 99.883a6.869 6.869 0 0 1 9.579-.127l.046-.03v-17.785a6.873 6.873 0 0 1 6.873-6.873 6.873 6.873 0 0 1 6.873 6.873v40.713a1.9 1.9 0 0 1 -.548 1.335l-13.548 13.733a1.9 1.9 0 0 0 -.548 1.335v4.351h-26v-25.463a1.9 1.9 0 0 1 .557-1.344z" fill="#f8af23" data-original="#f8af23" style="" class=""/><path xmlns="http://www.w3.org/2000/svg" d="m169.576 143.406h37.85v9.378h-37.85z" fill="#9e9e9e" transform="matrix(-1 0 0 -1 377.002 296.191)" data-original="#9e9e9e" style="" class=""/><path xmlns="http://www.w3.org/2000/svg" d="m188.5 152.785a16.054 16.054 0 0 1 16.054 16.054v64.177a0 0 0 0 1 0 0h-32.107a0 0 0 0 1 0 0v-64.178a16.054 16.054 0 0 1 16.053-16.053z" fill="#707070" transform="matrix(-1 0 0 -1 377.002 385.8)" data-original="#707070" style="" class=""/><path xmlns="http://www.w3.org/2000/svg" d="m110.877 121.845 17.123 22.257-17.123 10.868-7.877-28.125z" fill="#63bce7" data-original="#63bce7" style="" class=""/><path xmlns="http://www.w3.org/2000/svg" d="m145.123 121.845-17.123 22.257 17.123 10.868 7.877-28.125z" fill="#63bce7" data-original="#63bce7" style="" class=""/><circle xmlns="http://www.w3.org/2000/svg" cx="128" cy="64.213" fill="#9e9e9e" r="13.425" data-original="#9e9e9e" style="" class=""/><path xmlns="http://www.w3.org/2000/svg" d="m183.551 137.721 13.549-13.733a1.9 1.9 0 0 0 .548-1.335v-24.776a6.855 6.855 0 0 1 4.707 1.878l.046-.03v-17.784a6.873 6.873 0 0 1 13.747 0v40.713a1.9 1.9 0 0 1 -.548 1.335l-13.548 13.732a1.9 1.9 0 0 0 -.548 1.335v4.351h-18.504v-4.351a1.9 1.9 0 0 1 .551-1.335z" fill="#f8d323" data-original="#f8d323" style="" class=""/><path xmlns="http://www.w3.org/2000/svg" d="m188.926 143.406h18.5v9.378h-18.5z" fill="#cecece" data-original="#cecece" style="" class=""/><path xmlns="http://www.w3.org/2000/svg" d="m186.055 216.961v-64.176h18.5v64.177a16.039 16.039 0 0 1 -25.3 13.107 16.023 16.023 0 0 0 6.8-13.108z" fill="#9e9e9e" data-original="#9e9e9e" style="" class=""/><g xmlns="http://www.w3.org/2000/svg" fill="#3f3679"><path d="m27.323 242.488h-18a1.5 1.5 0 1 0 0 3h18a1.5 1.5 0 0 0 0-3z" fill="#3f3679" data-original="#3f3679" style="" class=""/><path d="m246.68 242.488h-18a1.5 1.5 0 0 0 0 3h18a1.5 1.5 0 1 0 0-3z" fill="#3f3679" data-original="#3f3679" style="" class=""/><path d="m218.479 242.488h-180.958a1.5 1.5 0 0 0 0 3h180.958a1.5 1.5 0 0 0 0-3z" fill="#3f3679" data-original="#3f3679" style="" class=""/><path d="m9.32 234.515h237.36a1.5 1.5 0 0 0 0-3h-48.375a17.55 17.55 0 0 0 7.749-14.554v-62.676h1.372a1.5 1.5 0 0 0 1.5-1.5v-9.378a1.5 1.5 0 0 0 -1.5-1.5h-4.426v-2.851a.4.4 0 0 1 .115-.281l13.548-13.732a3.38 3.38 0 0 0 .98-2.389v-40.714a8.374 8.374 0 0 0 -16.747 0v15.087a8.318 8.318 0 0 0 -9.187 1.795l-16.72 16.719a3.381 3.381 0 0 0 -1 2.4v8.586a24.121 24.121 0 0 0 -7.429-1.186h-13.124l-6.813-4.325v-6.416a53.707 53.707 0 0 0 -16.47-104.036c-1.431-.056-2.876-.056-4.306 0a53.707 53.707 0 0 0 -16.47 104.036v6.419l-6.813 4.325h-13.134a24.129 24.129 0 0 0 -7.43 1.184v-8.583a3.38 3.38 0 0 0 -1-2.4l-16.713-16.723a8.318 8.318 0 0 0 -9.187-1.795v-15.087a8.374 8.374 0 0 0 -16.747 0v40.713a3.378 3.378 0 0 0 .98 2.388l13.548 13.733a.4.4 0 0 1 .115.281v2.851h-4.422a1.5 1.5 0 0 0 -1.5 1.5v9.378a1.5 1.5 0 0 0 1.5 1.5h1.372v62.677a17.55 17.55 0 0 0 7.749 14.554h-48.375a1.5 1.5 0 1 0 0 3zm193.735-17.554a14.554 14.554 0 0 1 -29.107 0v-62.676h29.107zm2.872-65.677h-34.851v-6.378h34.851zm-28.927-33.339a.4.4 0 0 1 .117-.283l16.719-16.719a5.341 5.341 0 0 1 7.488-.1c.024.023.1.085.112.1a5.38 5.38 0 0 1 0 7.6l-12.595 12.595a1.5 1.5 0 1 0 2.121 2.121l12.595-12.595a8.355 8.355 0 0 0 .343-11.464v-17.26a5.374 5.374 0 0 1 10.747 0v40.713a.4.4 0 0 1 -.116.281l-13.548 13.733a3.379 3.379 0 0 0 -.979 2.388v2.851h-23.004zm-31.522 5.9 5.779 3.668-7.032 25.108-14.033-8.906zm-11.278-9.33a70.766 70.766 0 0 0 17.783-29.942h22.48a50.479 50.479 0 0 1 -40.263 29.942zm-7.7.368a67.866 67.866 0 0 1 -19.357-30.309h8.62a1.479 1.479 0 0 0 .2-.02 52.125 52.125 0 0 0 24.057 0 1.474 1.474 0 0 0 .156.016h8.681a67.938 67.938 0 0 1 -19.363 30.309c-.994.04-1.994.04-2.988.004zm1.5-69.42c14.553 0 28.722 6.456 39.9 18.177a1 1 0 0 1 0 1.145c-11.178 11.722-25.347 18.178-39.9 18.178s-28.722-6.456-39.9-18.178a1 1 0 0 1 0-1.144c11.178-11.722 25.347-18.178 39.9-18.178zm-21.791 1.677c.025-.1.054-.191.079-.287h.6c-.227.096-.454.188-.679.287zm42.905-.287h.6c.025.1.053.191.078.287-.225-.099-.452-.191-.678-.287zm.669 34.437c-.024.094-.045.19-.069.284h-.6c.223-.095.447-.186.669-.284zm-42.9.284h-.6c-.025-.1-.054-.19-.078-.286.23.098.456.19.681.286zm68.784 0h-22.867c.143-.576.292-1.149.422-1.73a1.481 1.481 0 0 0 .025-.209 64.518 64.518 0 0 0 16.82-12.779 3.972 3.972 0 0 0 0-5.285 64.527 64.527 0 0 0 -16.8-12.769c-.144-.654-.3-1.3-.461-1.949h22.864a51.227 51.227 0 0 1 0 34.721zm-1.2-37.721h-22.474a70.717 70.717 0 0 0 -17.793-29.942 50.479 50.479 0 0 1 40.266 29.942zm-44.972-30.31a67.887 67.887 0 0 1 19.358 30.309h-8.794c-.025 0-.048.006-.072.007a52.133 52.133 0 0 0 -24.021.012 1.481 1.481 0 0 0 -.19-.019h-8.628a67.876 67.876 0 0 1 19.358-30.309c.994-.035 1.994-.035 2.989 0zm-7.7.368a70.694 70.694 0 0 0 -17.792 29.942h-22.469a50.479 50.479 0 0 1 40.266-29.942zm-41.465 32.942h22.863q-.241.969-.457 1.948a64.525 64.525 0 0 0 -16.8 12.771 3.972 3.972 0 0 0 0 5.284 64.524 64.524 0 0 0 16.805 12.771c.143.652.293 1.3.454 1.947h-22.865a51.227 51.227 0 0 1 0-34.721zm1.2 37.721h22.47a70.69 70.69 0 0 0 17.8 29.941 50.479 50.479 0 0 1 -40.267-29.941zm44.314 33.287c.715.028 1.431.054 2.153.054s1.438-.026 2.153-.054a54.131 54.131 0 0 0 13.47-2.253v5.727l-15.62 20.308-15.623-20.308v-5.728a54.132 54.132 0 0 0 13.47 2.253zm-15.323 5.986 15.286 19.87-14.033 8.906-7.032-25.108zm-21.094 4.5h12.432l7.57 27.029a1.5 1.5 0 0 0 2.248.862l16.323-10.359 16.319 10.358a1.5 1.5 0 0 0 2.248-.862l7.57-27.029h12.433a21.126 21.126 0 0 1 7.43 1.348v12.212h-4.423a1.5 1.5 0 0 0 -1.5 1.5v9.378a1.5 1.5 0 0 0 1.5 1.5h1.372v62.677a17.55 17.55 0 0 0 7.749 14.554h-101.398a17.55 17.55 0 0 0 7.749-14.554v-62.676h1.372a1.5 1.5 0 0 0 1.5-1.5v-9.378a1.5 1.5 0 0 0 -1.5-1.5h-4.421v-12.207a21.122 21.122 0 0 1 7.43-1.355zm-34.413 8.323-13.546-13.736a.4.4 0 0 1 -.115-.28v-40.714a5.374 5.374 0 0 1 10.747 0v17.26a8.355 8.355 0 0 0 .345 11.461l12.595 12.597a1.5 1.5 0 1 0 2.121-2.121l-12.595-12.595a5.38 5.38 0 0 1 0-7.6c.013-.013.087-.075.112-.1a5.341 5.341 0 0 1 7.488.1l16.718 16.718a.4.4 0 0 1 .118.284v23.961h-23.002v-2.851a3.379 3.379 0 0 0 -.983-2.386zm-4.943 8.238h34.853v6.378h-34.85zm2.872 72.055v-62.678h29.11v62.677a14.554 14.554 0 0 1 -29.107 0z" fill="#3f3679" data-original="#3f3679" style="" class=""/><path d="m128 217.4a1.5 1.5 0 0 0 1.5-1.5v-58.055a1.5 1.5 0 0 0 -3 0v58.055a1.5 1.5 0 0 0 1.5 1.5z" fill="#3f3679" data-original="#3f3679" style="" class=""/><path d="m128 79.139a14.926 14.926 0 1 0 -14.925-14.925 14.942 14.942 0 0 0 14.925 14.925zm0-26.851a11.926 11.926 0 1 1 -11.925 11.926 11.939 11.939 0 0 1 11.925-11.926z" fill="#3f3679" data-original="#3f3679" style="" class=""/><path d="m121.914 64.213a6.093 6.093 0 0 1 6.086-6.086 1.5 1.5 0 0 0 0-3 9.1 9.1 0 0 0 -9.086 9.086 1.5 1.5 0 0 0 3 0z" fill="#3f3679" data-original="#3f3679" style="" class=""/></g></g></svg>
